<svg width="15" height="16" viewBox="0 0 15 16" fill="none" xmlns="http://www.w3.org/2000/svg">
<path d="M6 16V12.9129L11.5125 7.41647C11.6625 7.26588 11.8281 7.15294 12.0094 7.07765C12.1906 7.00235 12.3812 6.96471 12.5812 6.96471C12.7812 6.96471 12.9719 7.00235 13.1531 7.07765C13.3344 7.15294 13.5 7.26588 13.65 7.41647L14.5688 8.35765C14.7063 8.50824 14.8125 8.67451 14.8875 8.85647C14.9625 9.03843 15 9.22353 15 9.41176C15 9.6 14.9594 9.7851 14.8781 9.96706C14.7969 10.149 14.6875 10.3153 14.55 10.4659L9.075 16H6ZM12.5438 10.3906L13.5 9.41176L12.5812 8.47059L11.6063 9.44941L12.5438 10.3906ZM6.5625 6.4L5.5125 5.32706L6.88125 3.95294H4.36875C4.25625 4.27922 4.08125 4.56157 3.84375 4.8C3.60625 5.03843 3.325 5.21412 3 5.32706V11.6141C3.4375 11.7773 3.79688 12.0502 4.07812 12.4329C4.35938 12.8157 4.5 13.2518 4.5 13.7412C4.5 14.3686 4.28125 14.902 3.84375 15.3412C3.40625 15.7804 2.875 16 2.25 16C1.625 16 1.09375 15.7804 0.65625 15.3412C0.21875 14.902 0 14.3686 0 13.7412C0 13.2518 0.140625 12.8188 0.421875 12.4424C0.703125 12.0659 1.0625 11.7961 1.5 11.6329V5.32706C1.0625 5.16392 0.703125 4.89098 0.421875 4.50824C0.140625 4.12549 0 3.68941 0 3.2C0 2.57255 0.21875 2.03922 0.65625 1.6C1.09375 1.16078 1.625 0.941176 2.25 0.941176C2.7375 0.941176 3.17188 1.08235 3.55313 1.36471C3.93438 1.64706 4.20625 2.00784 4.36875 2.44706H6.88125L5.5125 1.07294L6.5625 0L9.75 3.2L6.5625 6.4ZM12.75 0.941176C13.375 0.941176 13.9062 1.16078 14.3438 1.6C14.7813 2.03922 15 2.57255 15 3.2C15 3.82745 14.7813 4.36078 14.3438 4.8C13.9062 5.23922 13.375 5.45882 12.75 5.45882C12.125 5.45882 11.5938 5.23922 11.1562 4.8C10.7187 4.36078 10.5 3.82745 10.5 3.2C10.5 2.57255 10.7187 2.03922 11.1562 1.6C11.5938 1.16078 12.125 0.941176 12.75 0.941176Z" fill="white"/>
</svg>
