<svg width="28" height="28" viewBox="0 0 28 28" fill="none" xmlns="http://www.w3.org/2000/svg">
<rect width="28" height="28" rx="5" fill="#6540AF"/>
<path d="M10.1579 21C9.56579 21 8.98026 20.8573 8.40132 20.5719C7.82237 20.2866 7.35526 19.9104 7 19.4434C7.34211 19.4434 7.69079 19.3104 8.04605 19.0445C8.40132 18.7786 8.57895 18.3927 8.57895 17.8868C8.57895 17.2382 8.80921 16.6869 9.26974 16.2329C9.73026 15.7789 10.2895 15.5519 10.9474 15.5519C11.6053 15.5519 12.1645 15.7789 12.625 16.2329C13.0855 16.6869 13.3158 17.2382 13.3158 17.8868C13.3158 18.7429 13.0066 19.4758 12.3882 20.0855C11.7697 20.6952 11.0263 21 10.1579 21ZM14.6974 16.3302L12.5263 14.1899L19.5921 7.22415C19.7368 7.08146 19.9178 7.00687 20.1349 7.00039C20.352 6.9939 20.5395 7.06849 20.6974 7.22415L21.7632 8.27485C21.9211 8.43051 22 8.61211 22 8.81966C22 9.0272 21.9211 9.20881 21.7632 9.36446L14.6974 16.3302Z" fill="white"/>
</svg>
