<svg width="16" height="16" viewBox="0 0 16 16" fill="none" xmlns="http://www.w3.org/2000/svg">
<path d="M3.63636 7.27273C2.6303 7.27273 1.77273 6.91818 1.06364 6.20909C0.354545 5.5 0 4.64242 0 3.63636C0 2.61818 0.354545 1.75758 1.06364 1.05455C1.77273 0.351515 2.6303 0 3.63636 0C4.65455 0 5.51515 0.351515 6.21818 1.05455C6.92121 1.75758 7.27273 2.61818 7.27273 3.63636C7.27273 4.64242 6.92121 5.5 6.21818 6.20909C5.51515 6.91818 4.65455 7.27273 3.63636 7.27273ZM10.9091 16C10.5091 16 10.1667 15.8576 9.88182 15.5727C9.59697 15.2879 9.45455 14.9455 9.45455 14.5455V10.9091C9.45455 10.5091 9.59697 10.1667 9.88182 9.88182C10.1667 9.59697 10.5091 9.45455 10.9091 9.45455H14.5455C14.9455 9.45455 15.2879 9.59697 15.5727 9.88182C15.8576 10.1667 16 10.5091 16 10.9091V14.5455C16 14.9455 15.8576 15.2879 15.5727 15.5727C15.2879 15.8576 14.9455 16 14.5455 16H10.9091ZM12.1636 4.87273L4.87273 12.1455C4.93333 12.2909 4.98485 12.4424 5.02727 12.6C5.0697 12.7576 5.09091 12.9212 5.09091 13.0909C5.09091 13.697 4.88182 14.2121 4.46364 14.6364C4.04545 15.0606 3.52727 15.2727 2.90909 15.2727C2.30303 15.2727 1.78788 15.0606 1.36364 14.6364C0.939394 14.2121 0.727273 13.697 0.727273 13.0909C0.727273 12.4727 0.939394 11.9545 1.36364 11.5364C1.78788 11.1182 2.30303 10.9091 2.90909 10.9091C3.07879 10.9091 3.24242 10.9303 3.4 10.9727C3.55758 11.0152 3.70909 11.0667 3.85455 11.1273L11.1273 3.83636C11.0667 3.69091 11.0152 3.54242 10.9727 3.39091C10.9303 3.23939 10.9091 3.07879 10.9091 2.90909C10.9091 2.29091 11.1212 1.77273 11.5455 1.35455C11.9697 0.936364 12.4848 0.727273 13.0909 0.727273C13.7091 0.727273 14.2273 0.936364 14.6455 1.35455C15.0636 1.77273 15.2727 2.29091 15.2727 2.90909C15.2727 3.51515 15.0636 4.0303 14.6455 4.45455C14.2273 4.87879 13.7091 5.09091 13.0909 5.09091C12.9212 5.09091 12.7606 5.0697 12.6091 5.02727C12.4576 4.98485 12.3091 4.93333 12.1636 4.87273Z" fill="white"/>
</svg>
