<svg width="28" height="28" viewBox="0 0 28 28" fill="none" xmlns="http://www.w3.org/2000/svg">
<rect width="28" height="28" rx="5" fill="#6540AF"/>
<path d="M8.55556 21C8.12778 21 7.76157 20.8477 7.45694 20.5431C7.15231 20.2384 7 19.8722 7 19.4444V8.55556C7 8.12778 7.15231 7.76157 7.45694 7.45694C7.76157 7.15231 8.12778 7 8.55556 7H15.5556V10.8889H17.1111V12.4444H21V19.4444C21 19.8722 20.8477 20.2384 20.5431 20.5431C20.2384 20.8477 19.8722 21 19.4444 21H8.55556ZM9.33333 17.8889H18.6667L15.75 14L13.4167 17.1111L11.6667 14.7778L9.33333 17.8889ZM17.8889 11.6667V10.1111H16.3333V8.55556H17.8889V7H19.4444V8.55556H21V10.1111H19.4444V11.6667H17.8889Z" fill="white"/>
</svg>
